<?xml version="1.0" encoding="UTF-8" standalone="no"?>
<!-- Created with Inkscape (http://www.inkscape.org/) -->

<svg
   xmlns:dc="http://purl.org/dc/elements/1.1/"
   xmlns:cc="http://creativecommons.org/ns#"
   xmlns:rdf="http://www.w3.org/1999/02/22-rdf-syntax-ns#"
   xmlns:svg="http://www.w3.org/2000/svg"
   xmlns="http://www.w3.org/2000/svg"
   version="1.1"
   width="620.01"
   height="467.17"
   id="svg2">
  <defs
     id="defs4" />
  <metadata
     id="metadata7">
    <rdf:RDF>
      <cc:Work
         rdf:about="">
        <dc:format>image/svg+xml</dc:format>
        <dc:type
           rdf:resource="http://purl.org/dc/dcmitype/StillImage" />
        <dc:title></dc:title>
      </cc:Work>
    </rdf:RDF>
  </metadata>
  <g
     transform="translate(131.5,-431.11)"
     id="layer1">
    <path
       d="m -19.923,887.44 c -1.291,-0.46 -3.251,-1.46 -4.356,-2.21 -8.506,-5.83 -9.678,-21.74 -2.159,-29.26 3.481,-3.48 6.285,-4.54 11.962,-4.54 5.8951,0 8.8731,1.29 12.3221,5.33 5.9254,6.92 5.7517,19.74 -0.366,26.38 -4.175,4.53 -11.6141,6.36 -17.4031,4.3 z m 10.7401,-4.85 c 4.839,-2.44 7.222,-7.71 6.595,-14.55 -0.571,-6.15 -2.854,-9.75 -7.389,-11.64 -5.9381,-2.48 -12.6761,0.23 -15.4251,6.18 -1.575,3.41 -1.569,10.86 0,14.35 1.21,2.66 4.623,5.83 7.024,6.53 2.916,0.84 6.459,0.5 9.1761,-0.87 z M 95.137,851.33 62.676,832.58 l -3.524,2.06 c -1.936,1.13 -14.233,8.23 -27.324,15.79 -21.9948,12.68 -23.8748,13.65 -24.6441,12.63 -0.4591,-0.6 -0.7569,-1.35 -0.6701,-1.65 0.087,-0.3 9.6482,-6.03 21.2372,-12.72 11.59,-6.69 23.422,-13.53 26.294,-15.19 l 5.224,-3.03 -2.128,-1.1 c -1.786,-0.92 -2.177,-1.51 -2.438,-3.65 l -0.31,-2.55 -26.35,15.2 C 2.146,853.31 1.6806,853.55 0.92373,852.18 c -0.6701,-1.2 -0.5956,-1.51 0.55217,-2.32 0.7259,-0.51 12.9301,-7.63 27.1191,-15.84 l 25.798,-14.9 0.161,-36.44 c 0.09,-20.03 -0.06,-36.43 -0.31,-36.42 -1.669,0 -56.4099,-8.95 -56.8129,-9.31 -0.441,-0.4 2.82253,-14.02 3.52983,-14.72 0.24817,-0.25 48.79107,18.02 50.29907,18.93 0.713,0.43 1.873,2.06 -22.125,-31.12 L 9.4485,682.82 10.826,681.71 c 0.757,-0.62 1.408,-1.07 1.446,-1.02 0.378,0.55 44.491,61.58 44.621,61.73 0.09,0.1 15.623,-8.73 34.509,-19.64 l 34.338,-19.82 0.17,-39.99 0.15,-39.99 -34.54,-19.95 c -18.998,-10.98 -34.602,-19.88 -34.676,-19.8 -0.07,0.1 -10.604,14.18 -23.403,31.33 l -23.267,31.18 -1.4018,-1.13 -1.396,-1.13 23.6638,-31.55 23.663,-31.54 0,-40.38 0,-40.38 -19.376,-11.16 C 1.7489,469.16 5.0062,471.27 6.2222,469.65 l 1.0548,-1.4 23.843,13.76 c 13.116,7.57 24.328,13.89 24.911,14.05 0.633,0.16 15.294,-7.93 36.128,-19.95 19.281,-11.12 35.231,-20.22 35.451,-20.22 0.21,0 16.7,9.41 36.64,20.91 l 36.26,20.92 0,41.04 0,41.05 35.36,20.4 35.35,20.4 0.17,41.23 0.16,41.23 21.92,17.66 21.92,17.64 -5.47,5.49 c -5.18,5.2 -5.51,5.43 -6.52,4.41 -0.58,-0.6 -8.36,-10.17 -17.27,-21.25 -8.92,-11.1 -16.46,-20.25 -16.75,-20.36 -0.28,-0.1 -15.9,8.69 -34.7,19.54 l -34.17,19.72 0,16.6 c 0,9.14 -0.21,16.61 -0.47,16.61 -0.25,0 -1.09,-0.18 -1.86,-0.39 l -1.4,-0.37 0,-16.27 0,-16.26 -31.17,-18.02 c -17.15,-9.91 -31.26,-17.95 -31.36,-17.86 -0.46,0.39 47.82,69.14 48.75,69.43 0.59,0.19 16.68,4.53 35.76,9.65 l 34.69,9.3 24.43,-13.96 c 13.44,-7.69 24.68,-13.82 24.97,-13.64 0.68,0.42 5.18,8.42 4.89,8.67 -0.11,0.11 -12.05,6.95 -26.53,15.22 l -26.31,15.03 -43.53,-11.67 -43.53,-11.67 -20.12,-39.31 c -11.06,-21.63 -20.29,-39.6 -20.5,-39.96 -0.23,-0.37 -14.57,7.54 -34.59,19.09 l -34.204,19.73 0,40.11 0,40.11 34.204,19.75 c 18.81,10.85 34.55,19.74 34.98,19.74 0.43,0 16.17,-8.88 34.98,-19.74 l 34.19,-19.73 0,-13.63 c 0,-12.17 0.11,-13.59 0.98,-13.25 0.54,0.21 1.38,0.38 1.87,0.38 0.73,0 0.88,2.36 0.88,14.21 l 0,14.2 -25.29,14.58 c -13.9,8.01 -30.3,17.48 -36.45,21.02 l -11.16,6.46 -32.473,-18.75 z M 193.95,716.47 c -1.47,-13.82 -2.79,-26.18 -2.96,-27.46 l -0.29,-2.32 8.08,0 8.07,0 -0.34,2.01 c -0.77,4.53 -5.56,52 -5.27,52.28 0.17,0.17 15.22,-8.31 33.45,-18.83 l 33.13,-19.14 0.17,-40.05 0.15,-40.03 -34.28,-19.78 c -18.85,-10.87 -34.73,-19.75 -35.27,-19.73 -0.54,0 -16.39,8.94 -35.22,19.81 l -34.22,19.76 0.16,39.98 0.16,39.98 33.5,19.38 c 18.43,10.65 33.53,19.35 33.57,19.32 0.1,0 -1.13,-11.36 -2.59,-25.18 z m -8.95,-51.5 0,-17.99 2.17,0 2.17,0 0,7.45 0,7.44 9.31,0 9.3,0 0,-7.44 0,-7.45 2.17,0 2.18,0 0,17.99 0,18 -2.18,0 -2.17,0 0,-8.38 0,-8.38 -9.3,0 -9.31,0 0,8.38 0,8.38 -2.17,0 -2.17,0 0,-18 z m -22.86,-65.11 34.33,-19.81 0.16,-40.21 0.15,-40.21 -34.28,-19.77 c -18.85,-10.88 -34.49,-19.81 -34.76,-19.85 -0.26,-0.1 -15.96,8.84 -34.886,19.76 l -34.41,19.86 0,40.11 0,40.11 34.279,19.86 c 18.857,10.92 34.467,19.89 34.687,19.92 0.23,0 15.87,-8.86 34.75,-19.77 z m -34.47,7.93 c -0.54,-0.77 -0.78,-1.59 -0.52,-1.81 0.25,-0.23 13.39,-7.87 29.19,-16.99 23.39,-13.48 28.89,-16.42 29.62,-15.81 0.49,0.41 0.9,1.09 0.9,1.52 0,0.42 -12.5,7.97 -27.77,16.77 -15.27,8.8 -28.36,16.39 -29.1,16.86 -1.21,0.78 -1.44,0.73 -2.32,-0.54 z m -60.558,-68.15 0,-34.12 1.861,0 1.861,0 0,34.12 0,34.13 -1.861,0 -1.861,0 0,-34.13 z m 89.508,-48.95 c -15.78,-9.12 -28.86,-16.76 -29.06,-16.97 -0.67,-0.65 0.43,-3.02 1.31,-2.83 1.74,0.39 57.96,33.1 57.97,33.74 0,0.36 -0.33,1.1 -0.76,1.65 -0.69,0.89 -4.07,-0.9 -29.46,-15.59 z m 309.69,321.34 c -1.96,-0.79 -4.69,-4.35 -4.48,-5.84 0.23,-1.61 2.98,-2.26 2.98,-0.7 0,0.55 0.69,1.69 1.52,2.52 2.14,2.14 4.9,2.03 7.22,-0.29 2.23,-2.23 2.29,-3.96 0.22,-6.03 -1.23,-1.24 -2.05,-1.54 -3.72,-1.34 -1.99,0.23 -2.14,0.13 -2.14,-1.49 0,-1.31 0.3,-1.73 1.21,-1.73 1.9,0 4.32,-1.32 4.71,-2.55 1.36,-4.3 -5.96,-5.87 -8.29,-1.78 -1.08,1.92 -1.72,2.18 -3.11,1.3 -0.69,-0.44 -0.68,-0.83 0.1,-2.32 1.41,-2.72 3.18,-4.03 5.95,-4.4 6.39,-0.86 11.33,5.39 7.36,9.31 l -1.4,1.37 2.02,1.93 c 5.94,5.7 -2.12,15.29 -10.14,12.04 z m -64.71,-9.59 c -8.94,-2.91 -13.27,-16.39 -8.7,-27.04 4.75,-11.03 21.56,-12.49 27.18,-2.35 1.72,3.11 1.54,3.79 -1.19,4.43 -1.32,0.31 -1.75,0 -2.79,-1.89 -2.53,-4.62 -7.66,-6.29 -13.04,-4.24 -4.78,1.83 -7.12,6.21 -7.12,13.37 0,6.88 2.08,11.1 6.46,13.08 6.19,2.81 13.06,0 14.92,-6.1 0.43,-1.42 1.32,-1.61 3.96,-0.87 l 1.44,0.41 -2.07,4.01 c -2.78,5.36 -6.12,7.53 -12.13,7.85 -2.56,0.14 -5.26,-0.12 -6.92,-0.66 z m 27.23,-17.72 0,-18 2.17,0 2.17,0 0,7.45 0,7.44 9.31,0 9.3,0 0,-7.44 0,-7.45 2.18,0 2.17,0 0,18 0,17.99 -2.17,0 -2.18,0 0,-8.38 0,-8.37 -9.3,0 -9.31,0 0,8.37 0,8.38 -2.17,0 -2.17,0 0,-17.99 z m -114.78,-21.1 0,-17.99 2.38,0 2.39,0 9.4,14.11 9.4,14.12 0,-14.12 0,-14.11 2.17,0 2.17,0 0,17.99 0,17.99 -2.33,0 -2.32,0 -9.31,-14.1 -9.31,-14.11 -0.16,14.12 -0.17,14.11 -2.16,0 -2.16,0 0,-17.99 z m 67.31,14.53 c -2.73,-0.76 -11.41,-3.12 -19.29,-5.23 -13.96,-3.75 -14.32,-3.89 -14.04,-5.33 0.16,-0.82 0.72,-1.49 1.26,-1.49 0.54,0 9.29,2.24 19.43,4.97 10.15,2.73 18.57,4.96 18.72,4.96 0.4,0 -0.27,3.09 -0.72,3.32 -0.22,0.11 -2.63,-0.43 -5.36,-1.2 z m -417.861,-52.99 0,-18 2.171,0 2.172,0 0,7.45 0,7.44 9.306,0 9.307,0 0,-7.44 0,-7.45 2.172,0 2.1711,0 0,18 0,17.99 -2.1711,0 -2.172,0 0,-8.38 0,-8.37 -9.307,0 -9.306,0 0,8.37 0,8.38 -2.172,0 -2.171,0 0,-17.99 z m 27.1251,-44.33 c -1.2901,-0.46 -3.2511,-1.45 -4.3551,-2.21 -8.506,-5.83 -9.679,-21.73 -2.159,-29.25 3.48,-3.49 6.2851,-4.55 11.9621,-4.54 5.8939,0 8.872,1.29 12.3217,5.32 5.9252,6.92 5.7512,19.75 -0.3661,26.38 -4.1755,4.53 -11.6146,6.37 -17.4036,4.3 z m 10.7401,-4.84 c 4.8394,-2.45 7.2219,-7.72 6.5952,-14.56 -0.5708,-6.14 -2.854,-9.74 -7.38937,-11.63 -5.93793,-2.48 -12.67603,0.22 -15.42403,6.18 -1.576,3.41 -1.57,10.85 0,14.34 1.21,2.67 4.622,5.84 7.0231,6.53 2.916,0.84 6.459,0.51 9.1765,-0.86 z M -83.395,486.93 c -1.96,-0.8 -4.692,-4.36 -4.479,-5.85 0.23,-1.61 2.979,-2.26 2.979,-0.7 0,0.55 0.685,1.69 1.523,2.53 2.134,2.13 4.896,2.02 7.211,-0.3 2.232,-2.23 2.297,-3.96 0.227,-6.03 -1.239,-1.24 -2.056,-1.54 -3.723,-1.34 -1.985,0.23 -2.136,0.13 -2.136,-1.49 0,-1.31 0.298,-1.73 1.212,-1.73 1.889,0 4.312,-1.32 4.704,-2.55 1.364,-4.3 -5.957,-5.87 -8.284,-1.78 -1.09,1.92 -1.724,2.18 -3.119,1.3 -0.693,-0.44 -0.678,-0.83 0.09,-2.32 1.406,-2.72 3.179,-4.03 5.957,-4.4 6.39,-0.86 11.327,5.39 7.35,9.31 l -1.396,1.37 2.016,1.93 c 5.944,5.71 -2.116,15.29 -10.133,12.05 z m 27.114,-9.6 c -8.946,-2.91 -13.28,-16.39 -8.698,-27.03 4.746,-11.04 21.56,-12.5 27.175,-2.36 1.725,3.11 1.545,3.79 -1.185,4.43 -1.322,0.31 -1.756,0 -2.792,-1.89 -2.531,-4.62 -7.662,-6.29 -13.042,-4.24 -4.783,1.83 -7.116,6.21 -7.116,13.37 0,6.88 2.078,11.1 6.452,13.09 6.192,2.81 13.067,0 14.922,-6.11 0.428,-1.41 1.322,-1.61 3.958,-0.87 l 1.446,0.41 -2.072,4.01 c -2.78,5.36 -6.124,7.53 -12.13,7.85 -2.556,0.14 -5.261,-0.12 -6.918,-0.66 z m 36.358,0 c -1.291,-0.46 -3.251,-1.46 -4.356,-2.22 -8.506,-5.82 -9.678,-21.72 -2.159,-29.25 3.481,-3.48 6.285,-4.54 11.962,-4.54 5.8951,0 8.8731,1.29 12.3221,5.32 5.9254,6.93 5.7517,19.76 -0.366,26.39 -4.175,4.53 -11.6141,6.36 -17.4031,4.3 z m 10.7401,-4.85 c 4.839,-2.44 7.222,-7.71 6.595,-14.55 -0.571,-6.15 -2.854,-9.74 -7.389,-11.64 -5.9381,-2.48 -12.6761,0.22 -15.4251,6.18 -1.575,3.42 -1.569,10.86 0,14.35 1.21,2.67 4.623,5.84 7.024,6.53 2.916,0.84 6.459,0.5 9.1761,-0.87 z M -121.5,459.61 l 0,-17.99 2.17,0 2.17,0 0,7.44 0,7.45 9.31,0 9.309,0 0,-7.45 0,-7.44 2.17,0 2.17,0 0,17.99 0,17.99 -2.17,0 -2.17,0 0,-8.38 0,-8.37 -9.309,0 -9.31,0 0,8.37 0,8.38 -2.17,0 -2.17,0 0,-17.99 z"
       id="path2996"
       style="fill:#000000" />
  </g>
</svg>
